<svg xmlns="http://www.w3.org/2000/svg" xmlns:xlink="http://www.w3.org/1999/xlink" viewBox="0 0 371.756 451">
  <defs>
    <style>
      .cls-1 {
        fill: #cd0122;
      }

      .cls-2, .cls-4, .cls-5, .cls-6, .cls-7 {
        fill: #fff;
      }

      .cls-3, .cls-8 {
        fill: #e30025;
      }

      .cls-3 {
        stroke: #e30025;
        stroke-width: 2px;
      }

      .cls-4 {
        font-size: 60px;
      }

      .cls-4, .cls-5, .cls-6, .cls-7, .cls-8 {
        font-family: ArialMT, Arial;
      }

      .cls-5 {
        font-size: 55px;
      }

      .cls-6 {
        font-size: 59px;
      }

      .cls-7 {
        font-size: 30px;
      }

      .cls-7, .cls-8 {
        letter-spacing: 0.1em;
      }

      .cls-8 {
        font-size: 40px;
      }

      .cls-9 {
        filter: url(#Ellipse_2);
      }
    </style>
    <filter id="Ellipse_2" x="8.833" y="61.813" width="352.029" height="352.029" filterUnits="userSpaceOnUse">
      <feOffset dy="3" input="SourceAlpha"/>
      <feGaussianBlur stdDeviation="5" result="blur"/>
      <feFlood flood-opacity="0.161"/>
      <feComposite operator="in" in2="blur"/>
      <feComposite in="SourceGraphic"/>
    </filter>
  </defs>
  <g id="pizzalogo" transform="translate(-127.167 -254)">
    <g id="Group_1118" data-name="Group 1118" transform="translate(-134 -168.101)">
      <path id="Path_692" data-name="Path 692" class="cls-1" d="M259.462,199.4,381.792,256.98l61.623,129.307L381.792,518.624,259.462,570.144,126.21,518.624,71.659,386.287,126.21,256.98Z" transform="translate(189.508 277.428)"/>
      <g class="cls-9" transform="matrix(1, 0, 0, 1, 261.17, 422.1)">
        <circle id="Ellipse_2-2" data-name="Ellipse 2" class="cls-2" cx="161.015" cy="161.015" r="161.015" transform="translate(23.83 73.81)"/>
      </g>
      <path id="Path_690" data-name="Path 690" class="cls-3" d="M91.813,108.987a10.734,10.734,0,1,0,10.732-10.5A10.63,10.63,0,0,0,91.813,108.987Zm15.609,0a4.884,4.884,0,1,1-4.878-4.648A4.773,4.773,0,0,1,107.423,108.987ZM79.131,75.761a10.5,10.5,0,1,0,10.732,10.5A10.63,10.63,0,0,0,79.131,75.761Zm0,15.15a4.654,4.654,0,1,1,4.878-4.648A4.773,4.773,0,0,1,79.131,90.911Zm74.144-16.872a10.5,10.5,0,1,0-10.732-10.5A10.63,10.63,0,0,0,153.275,74.039Zm0-15.15a4.654,4.654,0,1,1-4.878,4.648A4.773,4.773,0,0,1,153.275,58.889Zm-20.487,8.436a14.638,14.638,0,1,0-14.634,14.289A14.481,14.481,0,0,0,132.788,67.325Zm-23.414,0a8.787,8.787,0,1,1,8.78,8.436A8.623,8.623,0,0,1,109.374,67.325Zm90.445-28.347c-1.992-2.273-4.106-4.5-6.284-6.615a113.575,113.575,0,0,0-20.953-16.071,2.926,2.926,0,1,0-3,5.027,107.74,107.74,0,0,1,19.871,15.242c2.066,2.008,4.072,4.119,5.961,6.274A12.6,12.6,0,0,1,196.8,57.52l-1.123,1.92a1.094,1.094,0,0,1-.885.528,1.162,1.162,0,0,1-1-.414q-.715-.884-1.446-1.755A112.034,112.034,0,0,0,156.6,29.22a2.926,2.926,0,0,0-3.74.992A8.845,8.845,0,0,1,145.47,34.1a8.623,8.623,0,0,1-8.78-8.436,8.214,8.214,0,0,1,.082-1.135,2.927,2.927,0,0,0-2.242-3.255,95.766,95.766,0,0,0-26.822-2.3,2.926,2.926,0,1,0,.326,5.844,89.807,89.807,0,0,1,22.825,1.654A14.507,14.507,0,0,0,145.47,39.952a14.752,14.752,0,0,0,10.592-4.43,106.8,106.8,0,0,1,31.8,26.04q.7.829,1.377,1.671c.053.066.114.123.169.186l-14.821,25.33a16.156,16.156,0,0,0-18.2,2.864l-.348.338-.348-.338a16.131,16.131,0,0,0-22.3,0,15.729,15.729,0,0,0-2.056,20.239l.033.047a62.72,62.72,0,0,0,18.09,16.875l3.8,2.349a5.338,5.338,0,0,0,5.578,0l3.8-2.349q1.711-1.059,3.338-2.217v12.728a4.773,4.773,0,0,1-4.878,4.648,4.977,4.977,0,0,1-2.468-.646,2.926,2.926,0,0,0-4.361,2.55V162.01a4.884,4.884,0,0,1-9.756,0V151.768l5.218-8.918a2.927,2.927,0,0,0-5.053-2.955l-31.335,53.553a1.04,1.04,0,0,1-1.752,0l-11.137-19.033,2.031-1.257a62.711,62.711,0,0,0,18.09-16.875l.033-.047A15.729,15.729,0,0,0,118.534,136h0a16.132,16.132,0,0,0-22.3,0l-.348.338L95.534,136a16.132,16.132,0,0,0-22.3,0,15.729,15.729,0,0,0-2.056,20.239l.033.047c.132.183.267.363.4.545a4.919,4.919,0,0,1-4.184,2.256,4.773,4.773,0,0,1-4.878-4.648V138.264a2.926,2.926,0,0,0-4.361-2.55,4.976,4.976,0,0,1-2.468.646,4.773,4.773,0,0,1-4.878-4.648V101.243l15.669,26.779a2.927,2.927,0,0,0,5.053-2.955L36,64.3c.064-.074.128-.147.188-.224,1.284-1.619,2.611-3.207,3.944-4.717A111.876,111.876,0,0,1,54.912,45.364c.2.351.418.7.652,1.037l.033.047a62.719,62.719,0,0,0,18.09,16.875l3.8,2.349a5.339,5.339,0,0,0,5.579,0l3.8-2.349a62.71,62.71,0,0,0,18.09-16.875l.033-.047a15.729,15.729,0,0,0-2.056-20.239h0a16.132,16.132,0,0,0-22.3,0l-.348.338-.348-.338a16.132,16.132,0,0,0-22.3,0A15.774,15.774,0,0,0,52.928,39.51,117.094,117.094,0,0,0,35.744,55.484c-1.4,1.587-2.794,3.254-4.141,4.953a1.144,1.144,0,0,1-.988.414,1.1,1.1,0,0,1-.9-.531l-1.142-1.953a12.646,12.646,0,0,1,1.311-14.6,108.041,108.041,0,0,1,8.694-9.033A109.99,109.99,0,0,1,158.1,15.375a2.926,2.926,0,1,0,2.377-5.348A116.885,116.885,0,0,0,95.1,1.384a113.99,113.99,0,0,0-69.66,38.577,18.5,18.5,0,0,0-1.915,21.362l1.142,1.953A6.966,6.966,0,0,0,30.2,66.69c.142.01.284.013.425.015L45,91.265a2.936,2.936,0,0,0-.015.3v40.145a10.63,10.63,0,0,0,10.732,10.5q.489,0,.975-.044v12.267a10.63,10.63,0,0,0,10.732,10.5,10.819,10.819,0,0,0,7.949-3.451A62.984,62.984,0,0,0,89.3,173.157l3.8,2.349a5.232,5.232,0,0,0,1.578.646L106.52,196.4a6.893,6.893,0,0,0,11.857,0l20.264-34.631v.238a10.734,10.734,0,0,0,21.463,0V149.742q.486.044.975.044a10.63,10.63,0,0,0,10.732-10.5V121.869a62.4,62.4,0,0,0,8.9-9.969l.033-.047a15.718,15.718,0,0,0-1.429-19.591L194.787,65.82c.148,0,.3-.006.445-.017a6.962,6.962,0,0,0,5.5-3.408l1.123-1.92A18.443,18.443,0,0,0,199.819,38.979ZM61.7,30.362a10.234,10.234,0,0,1,14.15,0l.744.722a5.325,5.325,0,0,0,7.362,0l.744-.722a10.234,10.234,0,0,1,14.15,0,9.893,9.893,0,0,1,1.323,12.7A56.88,56.88,0,0,1,83.776,58.347l-3.5,2.169-3.5-2.169A56.9,56.9,0,0,1,60.375,43.066,9.893,9.893,0,0,1,61.7,30.362Zm30.68,137.819A56.894,56.894,0,0,1,75.984,152.9a9.893,9.893,0,0,1,1.323-12.7,10.233,10.233,0,0,1,14.15,0l.744.722a5.325,5.325,0,0,0,7.362,0l.744-.722a10.234,10.234,0,0,1,14.15,0h0a9.893,9.893,0,0,1,1.323,12.7,56.88,56.88,0,0,1-16.394,15.281l-3.5,2.169Zm83.555-59.664A56.884,56.884,0,0,1,159.539,123.8l-3.5,2.169-3.5-2.169a56.9,56.9,0,0,1-16.394-15.281,9.892,9.892,0,0,1,1.323-12.7,10.233,10.233,0,0,1,14.15,0l.744.723a5.325,5.325,0,0,0,7.362,0l.744-.722a10.233,10.233,0,0,1,14.15,0h0A9.892,9.892,0,0,1,175.933,108.517Z" transform="translate(334.23 545.631)"/>
      <g id="Group_1117" data-name="Group 1117" transform="translate(302.61 422.101)">
        <g id="Group_1108" data-name="Group 1108" transform="translate(0 46.334) rotate(-34.007)">
          <g id="Group_1107" data-name="Group 1107" transform="translate(0 0)">
            <text id="P" class="cls-4" transform="translate(0 55.588)"><tspan x="0" y="0">P</tspan></text>
          </g>
        </g>
        <g id="Group_1110" data-name="Group 1110" transform="translate(68.51 12.947) rotate(-17.886)">
          <g id="Group_1109" data-name="Group 1109" transform="translate(0 0)">
            <text id="I" class="cls-5" transform="translate(0 51.755)"><tspan x="0" y="0">I</tspan></text>
          </g>
        </g>
        <g id="Group_1112" data-name="Group 1112" transform="translate(126.479 0)">
          <g id="Group_1111" data-name="Group 1111" transform="translate(0 0)">
            <text id="Z" class="cls-6" transform="translate(0 53)"><tspan x="0" y="0">Z</tspan></text>
          </g>
        </g>
        <g id="Group_1114" data-name="Group 1114" transform="translate(203.473 7.856) rotate(18)">
          <g id="Group_1113" data-name="Group 1113" transform="translate(0 0)">
            <text id="Z-2" data-name="Z" class="cls-6" transform="translate(0 53.672)"><tspan x="0" y="0">Z</tspan></text>
          </g>
        </g>
        <g id="Group_1116" data-name="Group 1116" transform="translate(270.921 39.819) rotate(34)">
          <g id="Group_1115" data-name="Group 1115" transform="translate(0 0)">
            <text id="A" class="cls-4" transform="translate(0 55.588)"><tspan x="0" y="0">A</tspan></text>
          </g>
        </g>
      </g>
    </g>
    <text id="order_online" data-name="order online" class="cls-7" transform="translate(224 699)"><tspan x="0" y="0">order online</tspan></text>
    <text id="APP" class="cls-8" transform="translate(272 627)"><tspan x="0" y="0">APP</tspan></text>
  </g>
</svg>
