<svg xmlns="http://www.w3.org/2000/svg" viewBox="0 0 139.46 118.497">
  <defs>
    <style>
      .cls-1 {
        fill: #f5f5f5;
      }
    </style>
  </defs>
  <g id="Group_1126" data-name="Group 1126" transform="translate(0 0)">
    <g id="Group_1125" data-name="Group 1125" transform="translate(0 0)">
      <path id="Path_696" data-name="Path 696" class="cls-1" d="M118.369,105.084l-5.327-22.641h3.271a9.171,9.171,0,0,0,0-18.342H88.363a2.184,2.184,0,0,0,0,4.367h9.462v9.462a2.184,2.184,0,0,0,4.367,0V68.469h3.075l8.362,35.537a30.172,30.172,0,0,0-11.436.546V87.15a2.184,2.184,0,0,0-4.367,0v18.83a30.305,30.305,0,0,0-16.351,16.351H78.9V96.564a6.85,6.85,0,0,0-6.842-6.842H58.084a11.513,11.513,0,0,0-11.5,11.5V103.7h-.9L41.634,91.552V66.14h2.475a2.184,2.184,0,0,0,2.184-2.184V54.639a2.184,2.184,0,0,0-2.184-2.184H25.33V50.8c.707.114,3.05.473,5.6.671a23.823,23.823,0,0,0,6-.086,4.944,4.944,0,0,0,2.7-1.229,6.842,6.842,0,1,0-9.676-9.676c-1.163,1.163-3.219,3.436-4.625,5.008v-.17a2.184,2.184,0,0,0-4.367,0v.17c-1.406-1.572-3.461-3.845-4.625-5.008A6.842,6.842,0,0,0,6.662,50.16a4.947,4.947,0,0,0,2.7,1.229,23.813,23.813,0,0,0,6,.086c2.549-.2,4.893-.557,5.6-.671v1.65H2.184A2.184,2.184,0,0,0,0,54.639v9.317a2.184,2.184,0,0,0,2.184,2.184H4.659V89.722H2.184a2.184,2.184,0,1,0,0,4.367H37.877l3.2,9.608H39.451a20.841,20.841,0,0,0-20.817,20.817v9.317a2.184,2.184,0,0,0,2.184,2.184h4.806c0,.048,0,.1,0,.145a20.817,20.817,0,1,0,41.634,0c0-.048,0-.1,0-.145H88.511c0,.048,0,.1,0,.145a20.817,20.817,0,1,0,41.634,0c0-.048,0-.1,0-.145h7.136a2.184,2.184,0,0,0,2.184-2.184A30.187,30.187,0,0,0,118.369,105.084ZM118.5,69a4.8,4.8,0,0,1,0,8.547Zm-8.743-.53h4.376v9.608h-2.116Zm-76.712-24.9a2.475,2.475,0,0,1,3.587,3.408c-.833.355-3.585.339-6.781.019C31,45.72,32.261,44.354,33.042,43.572ZM9.663,46.981a2.475,2.475,0,0,1,3.587-3.408h0c.781.781,2.039,2.149,3.195,3.427C13.251,47.321,10.5,47.336,9.663,46.981Zm11.3,42.741H9.026V66.139H20.963Zm0-27.95H4.367v-4.95h16.6Zm29.988,39.451a7.141,7.141,0,0,1,7.133-7.133H72.059a2.478,2.478,0,0,1,2.475,2.475V103.7H50.951v-2.475Zm-13.684-11.5H25.33V66.139H37.267V89.722ZM25.33,61.772v-4.95h16.6v4.949H25.33ZM46.438,152.61a16.469,16.469,0,0,1-16.45-16.45c0-.048,0-.1,0-.145h7.28c0,.048-.006.1-.006.145a9.171,9.171,0,1,0,18.342,0c0-.048-.005-.1-.006-.145h7.28c0,.048,0,.1,0,.145A16.469,16.469,0,0,1,46.438,152.61Zm-4.8-16.45c0-.048,0-.1.006-.145h9.6c0,.048.006.1.006.145a4.8,4.8,0,1,1-9.608,0Zm37.638-4.513H23v-7.133a16.468,16.468,0,0,1,16.45-16.45H74.534v16.45a2.184,2.184,0,0,0,2.184,2.184h3.33A29.981,29.981,0,0,0,79.272,131.647Zm30.054,20.963a16.468,16.468,0,0,1-16.45-16.45c0-.048,0-.1,0-.145h7.28c0,.048-.006.1-.006.145a9.171,9.171,0,1,0,18.342,0c0-.048-.005-.1-.006-.145h7.28c0,.048,0,.1,0,.145A16.469,16.469,0,0,1,109.326,152.61Zm-4.8-16.45c0-.048,0-.1.006-.145h9.6c0,.048.006.1.006.145a4.8,4.8,0,1,1-9.608,0Zm-20.871-4.513a25.768,25.768,0,0,1,51.35,0Z" transform="translate(0 -38.48)"/>
    </g>
  </g>
</svg>
