<svg xmlns="http://www.w3.org/2000/svg" viewBox="0 0 48.345 49.085">
  <defs>
    <style>
      .cls-1 {
        fill: #fff;
        fill-rule: evenodd;
      }
    </style>
  </defs>
  <path id="Path_16" data-name="Path 16" class="cls-1" d="M506-819.294a3.286,3.286,0,0,1,3.279,3.272v42.54A3.286,3.286,0,0,1,506-770.209H484.682a3.285,3.285,0,0,1-3.279-3.272v-3.272h0v-26.179a.774.774,0,0,1-.82-.818v-.818a.774.774,0,0,1,.82-.818v-.818a.774.774,0,0,1-.82-.818v-.818a.774.774,0,0,1,.82-.818v-.818a.774.774,0,0,1-.82-.818v-.818a.774.774,0,0,1,.82-.818v-2.454h0v-1.636a3.286,3.286,0,0,1,3.279-3.272Zm-12.818,42.54H483.043v3.272a1.643,1.643,0,0,0,1.64,1.636h8.5a3.261,3.261,0,0,1-1.117-2.454A3.26,3.26,0,0,1,493.178-776.754Zm14.458,3.272h0v-3.272H497.5a3.26,3.26,0,0,1,1.117,2.454,3.261,3.261,0,0,1-1.117,2.454H506A1.644,1.644,0,0,0,507.636-773.481Zm10.657,0a.774.774,0,0,0-.82.818.774.774,0,0,0,.82.818.774.774,0,0,0,.82-.818A.774.774,0,0,0,518.292-773.481Zm-22.953.818a1.643,1.643,0,0,1-1.64-1.636,1.643,1.643,0,0,1,1.64-1.636,1.642,1.642,0,0,1,1.639,1.636A1.642,1.642,0,0,1,495.339-772.663Zm-12.3-5.727h24.592v-34.359H483.043Zm-6.558-5.726a.774.774,0,0,0-.819.818.774.774,0,0,0,.819.818.774.774,0,0,0,.82-.818A.774.774,0,0,0,476.485-784.116Zm18.854-3.272a2.413,2.413,0,0,0-2.459,2.454,2.413,2.413,0,0,0,2.459,2.454,2.413,2.413,0,0,0,2.459-2.454A2.413,2.413,0,0,0,495.339-787.389Zm0,3.272a.774.774,0,0,1-.82-.818.774.774,0,0,1,.82-.818.774.774,0,0,1,.819.818A.774.774,0,0,1,495.339-784.116Zm17.215-6.545a.774.774,0,0,0-.82.818.774.774,0,0,0,.82.818.773.773,0,0,0,.82-.818A.774.774,0,0,0,512.554-790.661Zm-17.215-5.727a2.413,2.413,0,0,0-2.459,2.454,2.413,2.413,0,0,0,2.459,2.454,2.413,2.413,0,0,0,2.459-2.454A2.413,2.413,0,0,0,495.339-796.388Zm6.558,0a2.413,2.413,0,0,0-2.459,2.454,2.413,2.413,0,0,0,2.459,2.454,2.413,2.413,0,0,0,2.459-2.454A2.413,2.413,0,0,0,501.9-796.388Zm-13.116,0a2.413,2.413,0,0,0-2.459,2.454,2.413,2.413,0,0,0,2.459,2.454,2.413,2.413,0,0,0,2.459-2.454A2.413,2.413,0,0,0,488.781-796.388Zm13.116,3.272a.774.774,0,0,1-.82-.818.773.773,0,0,1,.82-.818.774.774,0,0,1,.82.818A.774.774,0,0,1,501.9-793.115Zm-6.558,0a.774.774,0,0,1-.82-.818.774.774,0,0,1,.82-.818.774.774,0,0,1,.819.818A.774.774,0,0,1,495.339-793.115Zm-6.558,0a.774.774,0,0,1-.819-.818.773.773,0,0,1,.819-.818.773.773,0,0,1,.82.818A.774.774,0,0,1,488.781-793.115Zm-16.395-5.727a.774.774,0,0,0-.82.818.774.774,0,0,0,.82.818.773.773,0,0,0,.82-.818A.774.774,0,0,0,472.386-798.842Zm16.395-4.091a2.413,2.413,0,0,0-2.459,2.454,2.413,2.413,0,0,0,2.459,2.454,2.413,2.413,0,0,0,2.459-2.454A2.413,2.413,0,0,0,488.781-802.932Zm6.558,0a2.413,2.413,0,0,0-2.459,2.454,2.413,2.413,0,0,0,2.459,2.454,2.413,2.413,0,0,0,2.459-2.454A2.413,2.413,0,0,0,495.339-802.932Zm6.558,0a2.413,2.413,0,0,0-2.459,2.454,2.413,2.413,0,0,0,2.459,2.454,2.413,2.413,0,0,0,2.459-2.454A2.413,2.413,0,0,0,501.9-802.932Zm-13.116,3.272a.774.774,0,0,1-.819-.818.774.774,0,0,1,.819-.818.774.774,0,0,1,.82.818A.774.774,0,0,1,488.781-799.66Zm6.558,0a.774.774,0,0,1-.82-.818.774.774,0,0,1,.82-.818.774.774,0,0,1,.819.818A.774.774,0,0,1,495.339-799.66Zm6.558,0a.774.774,0,0,1-.82-.818.774.774,0,0,1,.82-.818.774.774,0,0,1,.82.818A.774.774,0,0,1,501.9-799.66Zm12.3-6.545v-.818a.774.774,0,0,1,.82-.818.774.774,0,0,1,.82.818v.818h.82a.774.774,0,0,1,.819.818.774.774,0,0,1-.819.818h-.82v.818a.774.774,0,0,1-.82.818.774.774,0,0,1-.82-.818v-.818h-.82a.774.774,0,0,1-.82-.818.774.774,0,0,1,.82-.818Zm-25.413-3.272a2.413,2.413,0,0,0-2.459,2.454,2.413,2.413,0,0,0,2.459,2.454,2.413,2.413,0,0,0,2.459-2.454A2.413,2.413,0,0,0,488.781-809.477Zm6.558,0a2.413,2.413,0,0,0-2.459,2.454,2.413,2.413,0,0,0,2.459,2.454,2.413,2.413,0,0,0,2.459-2.454A2.413,2.413,0,0,0,495.339-809.477Zm6.558,0a2.413,2.413,0,0,0-2.459,2.454,2.413,2.413,0,0,0,2.459,2.454,2.413,2.413,0,0,0,2.459-2.454A2.413,2.413,0,0,0,501.9-809.477ZM488.781-806.2a.774.774,0,0,1-.819-.818.774.774,0,0,1,.819-.818.774.774,0,0,1,.82.818A.774.774,0,0,1,488.781-806.2Zm6.558,0a.774.774,0,0,1-.82-.818.774.774,0,0,1,.82-.818.774.774,0,0,1,.819.818A.774.774,0,0,1,495.339-806.2Zm6.558,0a.774.774,0,0,1-.82-.818.774.774,0,0,1,.82-.818.774.774,0,0,1,.82.818A.774.774,0,0,1,501.9-806.2Zm-23.773-9.817a2.413,2.413,0,0,1-2.459-2.454.82.82,0,0,0-1.64,0,2.413,2.413,0,0,1-2.459,2.454.818.818,0,0,0,0,1.636,2.413,2.413,0,0,1,2.459,2.454.82.82,0,0,0,1.64,0,2.413,2.413,0,0,1,2.459-2.454A.818.818,0,0,0,478.124-816.022ZM506-817.658H484.682a1.643,1.643,0,0,0-1.64,1.636v1.636h24.593v-1.636A1.643,1.643,0,0,0,506-817.658Zm-31.15,3.272a3.889,3.889,0,0,0-.82-.818,3.888,3.888,0,0,0,.82-.818,3.871,3.871,0,0,0,.82.818A3.872,3.872,0,0,0,474.846-814.385Zm17.215-2.454a.774.774,0,0,1,.82.818.774.774,0,0,1-.82.818h-.82a.774.774,0,0,1-.819-.818.774.774,0,0,1,.819-.818Zm6.558,0a.774.774,0,0,1,.82.818.774.774,0,0,1-.82.818h-4.1a.774.774,0,0,1-.82-.818.774.774,0,0,1,.82-.818Z" transform="translate(-470.767 819.294)"/>
</svg>
