<?xml version="1.0" encoding="iso-8859-1"?>
<!-- Generator: Adobe Illustrator 19.0.0, SVG Export Plug-In . SVG Version: 6.00 Build 0)  -->
<svg xmlns="http://www.w3.org/2000/svg" xmlns:xlink="http://www.w3.org/1999/xlink" version="1.1" id="Capa_1" x="0px" y="0px" viewBox="0 0 511.998 511.998" style="enable-background:new 0 0 511.998 511.998;" xml:space="preserve" width="512px" height="512px">
<g>
	<g>
		<path d="M492.6,149.32c-1.419-1.526-3.409-2.394-5.493-2.394h-3.381c1.532-4.57,2.327-9.384,2.327-14.292    c0-24.809-20.183-44.991-44.992-44.991c-8.766,0-17.197,2.534-24.384,7.176c-7.805-21.15-28.109-35.884-51.603-35.884    c-1.795,0-3.583,0.087-5.362,0.261c0.105-1.388,0.158-2.782,0.158-4.179C359.871,24.681,335.19,0,304.854,0    c-24.628,0-45.952,16.256-52.76,39.41c-11.293,1.232-22.19,5.019-31.816,11.09c-3.503,2.21-4.552,6.842-2.342,10.345    c2.21,3.504,6.842,4.552,10.345,2.343c9.001-5.679,19.398-8.856,30.066-9.19c3.537-0.11,6.515-2.678,7.145-6.16    c3.445-19.026,20-32.837,39.362-32.837c22.066,0,40.018,17.952,40.018,40.018c0,3.935-0.575,7.834-1.71,11.59    c-0.808,2.675-0.063,5.576,1.935,7.529c1.997,1.954,4.914,2.634,7.57,1.771c4.013-1.309,8.188-1.972,12.409-1.972    c20.398,0,37.49,15.266,39.757,35.509c0.334,2.984,2.417,5.481,5.292,6.347c2.877,0.866,5.99-0.067,7.917-2.372    c5.723-6.848,14.114-10.775,23.021-10.775c16.538,0,29.992,13.454,29.992,29.991c0,5.04-1.263,9.922-3.643,14.292H183.663    c-1.988-2.719-3.074-5.975-3.074-9.418c0-7.879,5.631-14.527,13.39-15.809c3.633-0.6,6.294-3.748,6.278-7.431    c0-0.125-0.004-0.248-0.009-0.393c0.014-11.18,3.138-22.092,9.036-31.563c2.189-3.517,1.114-8.142-2.402-10.331    c-3.518-2.191-8.141-1.114-10.331,2.401c-6.439,10.342-10.235,22.056-11.108,34.162c-11.802,4.512-19.854,15.858-19.854,28.962    c0,3.25,0.497,6.416,1.448,9.418h-0.808c-2.084,0-4.074,0.867-5.493,2.394c-1.419,1.527-2.139,3.574-1.987,5.653l3.661,50.082    c0.302,4.132,3.896,7.216,8.027,6.934c4.131-0.303,7.235-3.896,6.933-8.027l-3.073-42.035h5.91c0.021,0,0.042,0.003,0.063,0.003    c0.02,0,0.04-0.003,0.06-0.003h42.798l14.712,335.071h-39.048l-19.207-262.725c-0.302-4.131-3.889-7.209-8.027-6.934    c-4.131,0.303-7.235,3.896-6.933,8.027l13.856,189.541c-5.673-8.047-15.025-13.194-25.37-13.194    c-17.109,0-31.028,13.919-31.028,31.028c0,1.058,0.053,2.109,0.158,3.151c-23.283,6.599-39.975,28.056-39.975,52.92    c0,4.143,3.358,7.5,7.5,7.5h94.782c0.817,3.286,3.778,5.685,7.272,5.685h269.693c3.93,0,7.193-3.033,7.48-6.953l10.602-145.011    c0.302-4.131-2.802-7.725-6.933-8.027c-4.137-0.277-7.725,2.803-8.027,6.934l-10.093,138.058H415.08l14.637-335.071h49.321    L466.851,328.63c-0.302,4.131,2.802,7.725,6.933,8.027c0.186,0.014,0.371,0.02,0.555,0.02c3.894,0,7.184-3.008,7.472-6.953    l12.775-174.749C494.739,152.895,494.019,150.847,492.6,149.32z M97.975,491.314c3.194-16.737,16.877-30.019,34.299-32.193    c2.319-0.289,4.37-1.644,5.548-3.661c1.178-2.019,1.348-4.47,0.46-6.632c-0.795-1.936-1.198-3.983-1.198-6.086    c0-8.838,7.19-16.028,16.028-16.028c7.658,0,14.273,5.446,15.729,12.949c0.381,1.962,1.528,3.689,3.188,4.802    c1.66,1.113,3.697,1.518,5.652,1.122c0.753-0.151,1.522-0.229,2.292-0.271l3.363,45.998H97.975z M252.856,496.998l-14.713-335.071    h48.851l4.929,335.071H252.856z M345.998,496.998h-39.074l-4.929-335.071h48.857L345.998,496.998z M400.066,496.998h-39.068    l4.854-335.071h48.851L400.066,496.998z" fill="#e30025"/>
	</g>
</g>
<g>
	<g>
		<path d="M48.419,448.325c-17.109,0-31.028,13.919-31.028,31.028s13.919,31.028,31.028,31.028s31.028-13.919,31.028-31.028    S65.528,448.325,48.419,448.325z M48.419,495.382c-8.838,0-16.028-7.19-16.028-16.028c0-8.838,7.19-16.028,16.028-16.028    s16.028,7.19,16.028,16.028S57.257,495.382,48.419,495.382z" fill="#e30025"/>
	</g>
</g>
<g>
	<g>
		<path d="M281.788,67.91c-19.519,0-35.398,15.88-35.398,35.398c0,4.143,3.358,7.5,7.5,7.5c4.142,0,7.5-3.357,7.5-7.5    c0-11.248,9.15-20.398,20.398-20.398c11.247,0,20.397,9.15,20.397,20.398c0,4.143,3.358,7.5,7.5,7.5c4.142,0,7.5-3.357,7.5-7.5    C317.185,83.79,301.306,67.91,281.788,67.91z" fill="#e30025"/>
	</g>
</g>
<g>
	<g>
		<path d="M358.461,97.576c-4.142,0-7.5,3.357-7.5,7.5v0.361c0,4.143,3.358,7.5,7.5,7.5c4.142,0,7.5-3.358,7.5-7.5v-0.361    C365.961,100.933,362.603,97.576,358.461,97.576z" fill="#e30025"/>
	</g>
</g>
<g>
	<g>
		<path d="M339.514,111.826c-4.142,0-7.5,3.357-7.5,7.5v0.361c0,4.143,3.358,7.5,7.5,7.5c4.142,0,7.5-3.358,7.5-7.5v-0.361    C347.014,115.183,343.656,111.826,339.514,111.826z" fill="#e30025"/>
	</g>
</g>
<g>
	<g>
		<path d="M315.111,36.729c-4.142,0-7.5,3.357-7.5,7.5v0.36c0,4.143,3.358,7.5,7.5,7.5c4.142,0,7.5-3.358,7.5-7.5v-0.36    C322.611,40.086,319.253,36.729,315.111,36.729z" fill="#e30025"/>
	</g>
</g>
<g>
	<g>
		<path d="M155.747,454.872c-4.142,0-7.5,3.357-7.5,7.5v0.361c0,4.143,3.358,7.5,7.5,7.5c4.142,0,7.5-3.357,7.5-7.5v-0.361    C163.247,458.229,159.889,454.872,155.747,454.872z" fill="#e30025"/>
	</g>
</g>
<g>
</g>
<g>
</g>
<g>
</g>
<g>
</g>
<g>
</g>
<g>
</g>
<g>
</g>
<g>
</g>
<g>
</g>
<g>
</g>
<g>
</g>
<g>
</g>
<g>
</g>
<g>
</g>
<g>
</g>
</svg>
