<svg xmlns="http://www.w3.org/2000/svg" viewBox="0 0 69.444 54.489">
  <defs>
    <style>
      .cls-1 {
        fill: #fff;
        fill-rule: evenodd;
      }
    </style>
  </defs>
  <path id="Path_42" data-name="Path 42" class="cls-1" d="M445.28-797.388a5.931,5.931,0,0,0,2.951-5.1l-.876-13.969a1.025,1.025,0,0,0-1.033-.948,1.021,1.021,0,0,0-1.034,1.06l.57,11.2a1.155,1.155,0,0,1-1.169,1.14,1.155,1.155,0,0,1-1.169-1.14l-.284-11.2a1.106,1.106,0,0,0-1.119-1.064A1.106,1.106,0,0,0,441-816.345l-.285,11.2a1.155,1.155,0,0,1-1.169,1.14,1.155,1.155,0,0,1-1.169-1.14l.57-11.2a1.021,1.021,0,0,0-1.034-1.06,1.024,1.024,0,0,0-1.033.948L436-802.492a5.93,5.93,0,0,0,2.951,5.1,3.346,3.346,0,0,1,1.644,3.256c-1,8.777-1.677,23.1-1.677,24.666,0,2.267,1.431,4.105,3.2,4.105s3.2-1.838,3.2-4.105c0-1.561-.678-15.889-1.677-24.666A3.347,3.347,0,0,1,445.28-797.388Zm54.336,5.4a2.1,2.1,0,0,1-2.123-2.07v-9.97a25.377,25.377,0,0,1,5.374-15.584.638.638,0,0,1,.7-.211.614.614,0,0,1,.428.581v27.252c.873,8.788,1.449,21.08,1.449,22.52,0,2.267-1.431,4.105-3.2,4.105s-3.2-1.838-3.2-4.105c0-1.439.576-13.724,1.449-22.518Zm-27.784-24.309c-12.7,0-23,10.04-23,22.426s10.3,22.426,23,22.426,23-10.04,23-22.426S484.533-816.293,471.832-816.293Zm0,39.443a17.257,17.257,0,0,1-17.45-17.017,17.257,17.257,0,0,1,17.45-17.016,17.257,17.257,0,0,1,17.45,17.016A17.257,17.257,0,0,1,471.832-776.85Zm0-29.472a12.631,12.631,0,0,0-12.773,12.455,12.631,12.631,0,0,0,12.773,12.455A12.631,12.631,0,0,0,484.6-793.867,12.631,12.631,0,0,0,471.832-806.322Z" transform="translate(-436 819.851)"/>
</svg>
